<svg width="87" height="87" viewBox="0 0 87 87" fill="none" xmlns="http://www.w3.org/2000/svg">
<path d="M44.9032 75.0847C62.3535 75.0847 76.4998 60.9385 76.4998 43.4882C76.4998 26.0379 62.3535 11.8916 44.9032 11.8916C27.4529 11.8916 13.3066 26.0379 13.3066 43.4882C13.3066 60.9385 27.4529 75.0847 44.9032 75.0847Z" fill="#0B3575" stroke="white" strokeWidth="2"/>
<path d="M59.443 61.1265C68.4352 52.1343 68.4352 37.5551 59.443 28.5629C50.4508 19.5708 35.8716 19.5708 26.8794 28.5629C17.8873 37.5551 17.8873 52.1343 26.8794 61.1265C35.8716 70.1187 50.4508 70.1187 59.443 61.1265Z" fill="white"/>
<path d="M63.4886 54.3986C71.4317 46.4555 71.4317 33.5772 63.4886 25.6341C55.5455 17.691 42.6671 17.691 34.7241 25.6341C26.781 33.5772 26.7809 46.4555 34.724 54.3986C42.6671 62.3417 55.5455 62.3417 63.4886 54.3986Z" fill="#0B3575"/>
<path d="M45.023 71.0538C45.023 70.7711 44.794 70.542 44.5113 70.542C44.2287 70.542 43.9995 70.7711 43.9995 71.0538H45.023ZM44.5113 84.4468L47.466 81.4921L44.5113 78.5375L41.5566 81.4921L44.5113 84.4468ZM43.9995 71.0538V81.4921H45.023V71.0538H43.9995Z" fill="white"/>
<path d="M44.5342 2.5481L41.5742 5.4975L44.5236 8.45744L47.4836 5.50804L44.5342 2.5481ZM43.9983 15.9365C43.9978 16.2192 44.2266 16.4486 44.5092 16.4492C44.7919 16.4497 45.0214 16.221 45.0219 15.9383L43.9983 15.9365ZM44.0171 5.5019L43.9983 15.9365L45.0219 15.9383L45.0406 5.50374L44.0171 5.5019Z" fill="white"/>
<path d="M72.0762 42.9951C71.7935 42.9951 71.5645 43.2243 71.5645 43.5069C71.5645 43.7896 71.7935 44.0186 72.0762 44.0186V42.9951ZM85.4693 43.5069L82.5146 40.5522L79.56 43.5069L82.5146 46.4616L85.4693 43.5069ZM72.0762 44.0186H82.5146V42.9951H72.0762V44.0186Z" fill="white"/>
<path d="M3.57031 43.4824L6.51971 46.4423L9.47966 43.4929L6.53036 40.533L3.57031 43.4824ZM16.9588 44.0182C17.2414 44.0187 17.471 43.7899 17.4714 43.5073C17.4719 43.2246 17.2432 42.9952 16.9605 42.9947L16.9588 44.0182ZM6.52411 43.9995L16.9588 44.0182L16.9605 42.9947L6.52596 42.9759L6.52411 43.9995Z" fill="white"/>
<path d="M55.5296 68.7638C55.4215 68.5027 55.1221 68.3787 54.861 68.4869C54.5998 68.595 54.4758 68.8943 54.584 69.1555L55.5296 68.7638ZM60.1821 81.3333L61.7812 77.4728L57.9207 75.8738L56.3217 79.7342L60.1821 81.3333ZM54.584 69.1555L58.5786 78.7993L59.5242 78.4076L55.5296 68.7638L54.584 69.1555Z" fill="white"/>
<path d="M28.8638 5.65942L27.2578 9.517L31.1154 11.123L32.7214 7.26544L28.8638 5.65942ZM33.4923 18.2338C33.6 18.4951 33.8991 18.6196 34.1605 18.5119C34.4218 18.4042 34.5463 18.105 34.4386 17.8437L33.4923 18.2338ZM29.5164 8.58621L33.4923 18.2338L34.4386 17.8437L30.4628 8.19624L29.5164 8.58621Z" fill="white"/>
<path d="M69.7867 32.4881C69.5256 32.5963 69.4017 32.8957 69.5098 33.1568C69.6179 33.4179 69.9173 33.5419 70.1784 33.4337L69.7867 32.4881ZM82.3562 27.8356L78.4957 26.2366L76.8967 30.097L80.7571 31.6961L82.3562 27.8356ZM70.1784 33.4337L79.8223 29.4391L79.4306 28.4935L69.7867 32.4881L70.1784 33.4337Z" fill="white"/>
<path d="M6.68359 59.1544L10.5412 60.7603L12.1471 56.9027L8.28951 55.2968L6.68359 59.1544ZM19.2579 54.5259C19.5192 54.4182 19.6437 54.119 19.5361 53.8577C19.4284 53.5964 19.1292 53.4718 18.8679 53.5795L19.2579 54.5259ZM9.61037 58.5016L19.2579 54.5259L18.8679 53.5795L9.22031 57.5554L9.61037 58.5016Z" fill="white"/>
<path d="M64.3619 62.6271C64.1621 62.4273 63.8381 62.4273 63.6382 62.6271C63.4383 62.827 63.4383 63.1511 63.6382 63.351L64.3619 62.6271ZM73.4704 72.4595V68.2809H69.2919V72.4595H73.4704ZM63.6382 63.351L71.0193 70.7321L71.743 70.0083L64.3619 62.6271L63.6382 63.351Z" fill="white"/>
<path d="M15.5739 14.5312L15.5664 18.7098L19.7449 18.7173L19.7524 14.5387L15.5739 14.5312ZM24.662 24.3772C24.8615 24.5774 25.1855 24.578 25.3857 24.3784C25.5859 24.1789 25.5866 23.855 25.3871 23.6547L24.662 24.3772ZM17.2969 16.9855L24.662 24.3772L25.3871 23.6547L18.022 16.2631L17.2969 16.9855Z" fill="white"/>
<path d="M63.6499 23.6568C63.45 23.8567 63.45 24.1807 63.6499 24.3806C63.8498 24.5805 64.1739 24.5805 64.3737 24.3806L63.6499 23.6568ZM73.4821 14.5483H69.3036V18.7269H73.4821V14.5483ZM64.3737 24.3806L71.7547 16.9995L71.031 16.2758L63.6499 23.6568L64.3737 24.3806Z" fill="white"/>
<path d="M15.5547 72.4424L19.7332 72.4499L19.7407 68.2714L15.5623 68.2639L15.5547 72.4424ZM25.4006 63.3543C25.6008 63.1548 25.6014 62.8308 25.402 62.6306C25.2024 62.4303 24.8784 62.4297 24.6782 62.6292L25.4006 63.3543ZM18.0089 70.7194L25.4006 63.3543L24.6782 62.6292L17.2865 69.9943L18.0089 70.7194Z" fill="white"/>
<path d="M70.1726 53.5786C69.9115 53.4705 69.6121 53.5945 69.5039 53.8556C69.3958 54.1167 69.5198 54.4161 69.7809 54.5243L70.1726 53.5786ZM82.3504 59.1767L80.7513 55.3163L76.8908 56.9154L78.4899 60.7758L82.3504 59.1767ZM69.7809 54.5243L79.4248 58.5189L79.8164 57.5733L70.1726 53.5786L69.7809 54.5243Z" fill="white"/>
<path d="M6.69531 27.813L8.28741 31.6764L12.1507 30.0843L10.5586 26.2209L6.69531 27.813ZM18.8595 33.4316C19.1204 33.5402 19.42 33.4168 19.5287 33.1559C19.6373 32.8949 19.5139 32.5953 19.2529 32.4867L18.8595 33.4316ZM9.2264 29.4211L18.8595 33.4316L19.2529 32.4867L9.61974 28.4762L9.2264 29.4211Z" fill="white"/>
<path d="M54.6016 17.8466C54.4934 18.1077 54.6175 18.407 54.8786 18.5151C55.1397 18.6233 55.439 18.4994 55.5472 18.2382L54.6016 17.8466ZM60.1997 5.6687L56.3392 7.26776L57.9383 11.1283L61.7987 9.52925L60.1997 5.6687ZM55.5472 18.2382L59.5419 8.59436L58.5962 8.20265L54.6016 17.8466L55.5472 18.2382Z" fill="white"/>
<path d="M28.8362 81.324L32.6996 79.7319L31.1075 75.8685L27.2441 77.4606L28.8362 81.324ZM34.4548 69.1597C34.5634 68.8988 34.44 68.5992 34.1791 68.4906C33.9181 68.3819 33.6185 68.5055 33.5099 68.7664L34.4548 69.1597ZM30.4443 78.793L34.4548 69.1597L33.5099 68.7664L29.4994 78.3995L30.4443 78.793Z" fill="white"/>
<path d="M44.9023 21.2295V42.7204" stroke="white" strokeWidth="3"/>
<path d="M44.5187 16.6245L38.6094 26.8598H50.4281L44.5187 16.6245Z" fill="white"/>
<path d="M58.136 52.3793L44.6992 44.0244" stroke="white" strokeWidth="3"/>
<path d="M61.2186 53.8434L55.6469 43.4204L49.4062 53.4571L61.2186 53.8434Z" fill="white"/>
<path d="M44.5173 47.3257C46.6368 47.3257 48.355 45.6075 48.355 43.4881C48.355 41.3686 46.6368 39.6504 44.5173 39.6504C42.3979 39.6504 40.6797 41.3686 40.6797 43.4881C40.6797 45.6075 42.3979 47.3257 44.5173 47.3257Z" fill="white"/>
</svg>
