<svg width="83" height="83" viewBox="0 0 83 83" fill="none" xmlns="http://www.w3.org/2000/svg">
<circle cx="41.5" cy="41.5" r="41" fill="white"/>
<circle cx="41.8722" cy="41.4887" r="30.8702" fill="white" stroke="#0B3575" stroke-width="2"/>
<circle cx="40.1715" cy="42.8144" r="22.4966" transform="rotate(-45 40.1715 42.8144)" fill="#0B3575"/>
<circle cx="45.9788" cy="38.0967" r="19.872" transform="rotate(-45 45.9788 38.0967)" fill="white"/>
<path d="M41.9897 68.4207C41.9897 68.1445 41.7659 67.9207 41.4897 67.9207C41.2136 67.9207 40.9897 68.1445 40.9897 68.4207H41.9897ZM41.4897 81.5059L44.3765 78.6191L41.4897 75.7324L38.603 78.6191L41.4897 81.5059ZM40.9897 68.4207V78.6191H41.9897V68.4207H40.9897Z" fill="#0B3575"/>
<path d="M41.513 1.48984L38.6211 4.3714L41.5026 7.26333L44.3946 4.38177L41.513 1.48984ZM40.9895 14.5705C40.989 14.8466 41.2125 15.0709 41.4886 15.0714C41.7647 15.0719 41.989 14.8484 41.9895 14.5723L40.9895 14.5705ZM41.0078 4.37569L40.9895 14.5705L41.9895 14.5723L42.0078 4.37748L41.0078 4.37569Z" fill="#0B3575"/>
<path d="M68.4214 41.0071C68.1452 41.0071 67.9214 41.2309 67.9214 41.5071C67.9214 41.7832 68.1452 42.0071 68.4214 42.0071V41.0071ZM81.5066 41.5071L78.6199 38.6203L75.7331 41.5071L78.6199 44.3938L81.5066 41.5071ZM68.4214 42.0071H78.6199V41.0071H68.4214V42.0071Z" fill="#0B3575"/>
<path d="M1.49069 41.4834L4.37226 44.3753L7.26419 41.4938L4.38263 38.6018L1.49069 41.4834ZM14.5713 42.0069C14.8475 42.0074 15.0717 41.7839 15.0722 41.5078C15.0727 41.2317 14.8493 41.0074 14.5731 41.0069L14.5713 42.0069ZM4.37654 41.9886L14.5713 42.0069L14.5731 41.0069L4.37834 40.9886L4.37654 41.9886Z" fill="#0B3575"/>
<path d="M52.2554 66.1835C52.1497 65.9284 51.8572 65.8072 51.6021 65.9129C51.347 66.0186 51.2258 66.311 51.3315 66.5662L52.2554 66.1835ZM56.801 78.464L58.3633 74.6923L54.5915 73.13L53.0292 76.9017L56.801 78.464ZM51.3315 66.5662L55.2343 75.9883L56.1582 75.6056L52.2554 66.1835L51.3315 66.5662Z" fill="#0B3575"/>
<path d="M26.2018 4.52974L24.6328 8.29865L28.4017 9.86772L29.9707 6.09881L26.2018 4.52974ZM30.7239 16.815C30.8291 17.0703 31.1214 17.192 31.3767 17.0868C31.632 16.9815 31.7537 16.6893 31.6485 16.434L30.7239 16.815ZM26.8395 7.38924L30.7239 16.815L31.6485 16.434L27.764 7.00822L26.8395 7.38924Z" fill="#0B3575"/>
<path d="M66.1846 30.7415C65.9295 30.8472 65.8084 31.1396 65.914 31.3948C66.0197 31.6499 66.3122 31.771 66.5673 31.6654L66.1846 30.7415ZM78.4651 26.1959L74.6934 24.6336L73.1311 28.4054L76.9028 29.9677L78.4651 26.1959ZM66.5673 31.6654L75.9895 27.7626L75.6068 26.8387L66.1846 30.7415L66.5673 31.6654Z" fill="#0B3575"/>
<path d="M4.53072 56.7949L8.29963 58.364L9.8687 54.5951L6.09979 53.026L4.53072 56.7949ZM16.816 52.2728C17.0713 52.1676 17.193 51.8754 17.0877 51.62C16.9825 51.3647 16.6903 51.2431 16.4349 51.3483L16.816 52.2728ZM7.39022 56.1573L16.816 52.2728L16.4349 51.3483L7.0092 55.2327L7.39022 56.1573Z" fill="#0B3575"/>
<path d="M60.8833 60.1881C60.6881 59.9928 60.3715 59.9928 60.1762 60.1881C59.981 60.3833 59.981 60.6999 60.1762 60.8952L60.8833 60.1881ZM69.7824 69.7943V65.7118H65.7V69.7943H69.7824ZM60.1762 60.8952L67.3876 68.1066L68.0947 67.3995L60.8833 60.1881L60.1762 60.8952Z" fill="#0B3575"/>
<path d="M13.2193 13.1977L13.2119 17.2802L17.2944 17.2875L17.3017 13.205L13.2193 13.1977ZM22.0985 22.8173C22.2934 23.0129 22.61 23.0135 22.8056 22.8185C23.0012 22.6236 23.0018 22.307 22.8069 22.1114L22.0985 22.8173ZM14.9026 15.5955L22.0985 22.8173L22.8069 22.1114L15.611 14.8897L14.9026 15.5955Z" fill="#0B3575"/>
<path d="M60.1894 22.1134C59.9942 22.3087 59.9942 22.6253 60.1894 22.8205C60.3847 23.0158 60.7013 23.0158 60.8965 22.8205L60.1894 22.1134ZM69.7956 13.2143H65.7131V17.2968H69.7956V13.2143ZM60.8965 22.8205L68.1079 15.6091L67.4008 14.902L60.1894 22.1134L60.8965 22.8205Z" fill="#0B3575"/>
<path d="M13.1987 69.7776L17.2812 69.785L17.2886 65.7025L13.2061 65.6951L13.1987 69.7776ZM22.8183 60.8984C23.0139 60.7035 23.0145 60.3869 22.8196 60.1913C22.6247 59.9957 22.3081 59.9951 22.1125 60.19L22.8183 60.8984ZM15.5966 68.0942L22.8183 60.8984L22.1125 60.19L14.8907 67.3859L15.5966 68.0942Z" fill="#0B3575"/>
<path d="M66.5605 51.3473C66.3054 51.2417 66.0129 51.3628 65.9072 51.6179C65.8015 51.873 65.9227 52.1655 66.1778 52.2712L66.5605 51.3473ZM78.4583 56.8168L76.896 53.045L73.1243 54.6073L74.6866 58.3791L78.4583 56.8168ZM66.1778 52.2712L75.6 56.174L75.9826 55.2501L66.5605 51.3473L66.1778 52.2712Z" fill="#0B3575"/>
<path d="M4.54201 26.1742L6.09753 29.9487L9.87205 28.3932L8.31653 24.6187L4.54201 26.1742ZM16.4266 31.6636C16.6815 31.7697 16.9742 31.6491 17.0804 31.3941C17.1865 31.1392 17.0659 30.8465 16.8109 30.7404L16.4266 31.6636ZM7.01486 27.7453L16.4266 31.6636L16.8109 30.7404L7.3992 26.8221L7.01486 27.7453Z" fill="#0B3575"/>
<path d="M51.3486 16.4366C51.2429 16.6917 51.3641 16.9842 51.6192 17.0899C51.8743 17.1955 52.1668 17.0744 52.2725 16.8193L51.3486 16.4366ZM56.818 4.53876L53.0463 6.10106L54.6086 9.87278L58.3803 8.31048L56.818 4.53876ZM52.2725 16.8193L56.1753 7.39711L55.2514 7.01443L51.3486 16.4366L52.2725 16.8193Z" fill="#0B3575"/>
<path d="M26.1752 78.4549L29.9497 76.8994L28.3942 73.1249L24.6196 74.6804L26.1752 78.4549ZM31.6645 66.5704C31.7707 66.3154 31.6501 66.0227 31.3951 65.9166C31.1402 65.8105 30.8475 65.9311 30.7414 66.186L31.6645 66.5704ZM27.7463 75.9821L31.6645 66.5704L30.7414 66.186L26.8231 75.5977L27.7463 75.9821Z" fill="#0B3575"/>
<circle cx="41.497" cy="41.4888" r="3.74944" fill="#0B3575"/>
<line x1="41.8721" y1="19.7419" x2="41.8721" y2="40.7388" stroke="#0B3575" stroke-width="3"/>
<path d="M41.4971 15.2426L35.7236 25.2426H47.2706L41.4971 15.2426Z" fill="#0B3575"/>
<line x1="54.8017" y1="50.1757" x2="41.6738" y2="42.0129" stroke="#0B3575" stroke-width="3"/>
<path d="M57.813 51.606L52.3694 41.4227L46.2722 51.2286L57.813 51.606Z" fill="#0B3575"/>
</svg>
