<svg width="19" height="22" viewBox="0 0 19 22" fill="none" xmlns="http://www.w3.org/2000/svg">
<path d="M2.30663 19.5066H5.76658V12.2037H12.6865V19.5066H16.1464V8.5523L9.22653 3.07515L2.30663 8.5523V19.5066ZM2.30663 21.9409C1.67231 21.9409 1.12948 21.7027 0.67815 21.2264C0.22605 20.7493 0 20.176 0 19.5066V8.5523C0 8.16687 0.0818853 7.80173 0.245656 7.45687C0.408658 7.11201 0.634324 6.82801 0.922654 6.60487L7.84256 1.12773C8.054 0.965441 8.27505 0.843726 8.50571 0.762583C8.73637 0.68144 8.97665 0.640869 9.22653 0.640869C9.47642 0.640869 9.71669 0.68144 9.94736 0.762583C10.178 0.843726 10.3991 0.965441 10.6105 1.12773L17.5304 6.60487C17.8187 6.82801 18.0448 7.11201 18.2086 7.45687C18.3716 7.80173 18.4531 8.16687 18.4531 8.5523V19.5066C18.4531 20.176 18.2274 20.7493 17.7761 21.2264C17.324 21.7027 16.7808 21.9409 16.1464 21.9409H10.3799V14.638H8.07322V21.9409H2.30663Z" fill="white"/>
</svg>
