<svg width="23" height="21" viewBox="0 0 23 21" fill="none" xmlns="http://www.w3.org/2000/svg">
<path d="M9.22222 6.10473C9.11929 6.20642 9.03757 6.32753 8.98179 6.46105C8.92601 6.59456 8.89729 6.73781 8.89729 6.88251C8.89729 7.0272 8.92601 7.17046 8.98179 7.30397C9.03757 7.43748 9.11929 7.55859 9.22222 7.66029L11.3333 9.7714H1.11111C0.5 9.7714 0 10.2714 0 10.8825C0 11.4936 0.5 11.9936 1.11111 11.9936H11.3333L9.22222 14.1047C9.11929 14.2064 9.03757 14.3275 8.98179 14.461C8.92601 14.5946 8.89729 14.7378 8.89729 14.8825C8.89729 15.0272 8.92601 15.1705 8.98179 15.304C9.03757 15.4375 9.11929 15.5586 9.22222 15.6603C9.65556 16.0936 10.3444 16.0936 10.7778 15.6603L14.7667 11.6714C14.8697 11.5686 14.9514 11.4465 15.0071 11.3121C15.0629 11.1777 15.0916 11.0336 15.0916 10.8881C15.0916 10.7425 15.0629 10.5985 15.0071 10.464C14.9514 10.3296 14.8697 10.2075 14.7667 10.1047L10.7778 6.10473C10.6761 6.0018 10.555 5.92007 10.4215 5.8643C10.288 5.80852 10.1447 5.7798 10 5.7798C9.85531 5.7798 9.71205 5.80852 9.57854 5.8643C9.44503 5.92007 9.32392 6.0018 9.22222 6.10473ZM20 18.6603H12.2222C11.6111 18.6603 11.1111 19.1603 11.1111 19.7714C11.1111 20.3825 11.6111 20.8825 12.2222 20.8825H20C21.2222 20.8825 22.2222 19.8825 22.2222 18.6603V3.10473C22.2222 1.88251 21.2222 0.882507 20 0.882507H12.2222C11.6111 0.882507 11.1111 1.38251 11.1111 1.99362C11.1111 2.60473 11.6111 3.10473 12.2222 3.10473H20V18.6603Z" fill="white"/>
</svg>
