<svg width="23" height="22" viewBox="0 0 23 22" xmlns="http://www.w3.org/2000/svg">
<path d="M13.1886 15.8355C13.0052 15.6521 12.9172 15.4306 12.9246 15.1709C12.9325 14.9112 13.0282 14.6896 13.2115 14.5063L15.8011 11.9167H5.58024C5.32052 11.9167 5.10266 11.8287 4.92666 11.6527C4.75127 11.4773 4.66357 11.2598 4.66357 11.0001C4.66357 10.7403 4.75127 10.5225 4.92666 10.3465C5.10266 10.1711 5.32052 10.0834 5.58024 10.0834H15.8011L13.1886 7.4709C13.0052 7.28756 12.9136 7.0697 12.9136 6.81731C12.9136 6.56554 13.0052 6.34798 13.1886 6.16465C13.3719 5.98131 13.5898 5.88965 13.8422 5.88965C14.0939 5.88965 14.3115 5.98131 14.4948 6.16465L18.6886 10.3584C18.7802 10.4501 18.8453 10.5494 18.8838 10.6563C18.9217 10.7633 18.9407 10.8778 18.9407 11.0001C18.9407 11.1223 18.9217 11.2369 18.8838 11.3438C18.8453 11.4508 18.7802 11.5501 18.6886 11.6417L14.4719 15.8584C14.3039 16.0265 14.0939 16.1105 13.8422 16.1105C13.5898 16.1105 13.3719 16.0188 13.1886 15.8355Z"/>
</svg>
