<svg width="20" height="21" viewBox="0 0 20 21" fill="none" xmlns="http://www.w3.org/2000/svg">
<path d="M2.4125 20.0091C1.74906 20.0091 1.18132 19.7731 0.709275 19.301C0.236425 18.8282 0 18.26 0 17.5966C0 16.9332 0.236425 16.365 0.709275 15.8922C1.18132 15.4201 1.74906 15.1841 2.4125 15.1841C3.07594 15.1841 3.64368 15.4201 4.11573 15.8922C4.58858 16.365 4.825 16.9332 4.825 17.5966C4.825 18.26 4.58858 18.8282 4.11573 19.301C3.64368 19.7731 3.07594 20.0091 2.4125 20.0091ZM2.4125 12.7716C1.74906 12.7716 1.18132 12.5352 0.709275 12.0623C0.236425 11.5903 0 11.0225 0 10.3591C0 9.69567 0.236425 9.12753 0.709275 8.65468C1.18132 8.18263 1.74906 7.94661 2.4125 7.94661C3.07594 7.94661 3.64368 8.18263 4.11573 8.65468C4.58858 9.12753 4.825 9.69567 4.825 10.3591C4.825 11.0225 4.58858 11.5903 4.11573 12.0623C3.64368 12.5352 3.07594 12.7716 2.4125 12.7716ZM2.4125 5.53411C1.74906 5.53411 1.18132 5.29768 0.709275 4.82483C0.236425 4.35279 0 3.78504 0 3.12161C0 2.45817 0.236425 1.89043 0.709275 1.41838C1.18132 0.945531 1.74906 0.709106 2.4125 0.709106C3.07594 0.709106 3.64368 0.945531 4.11573 1.41838C4.58858 1.89043 4.825 2.45817 4.825 3.12161C4.825 3.78504 4.58858 4.35279 4.11573 4.82483C3.64368 5.29768 3.07594 5.53411 2.4125 5.53411ZM9.65 12.7716C8.98656 12.7716 8.41882 12.5352 7.94678 12.0623C7.47393 11.5903 7.2375 11.0225 7.2375 10.3591C7.2375 9.69567 7.47393 9.12753 7.94678 8.65468C8.41882 8.18263 8.98656 7.94661 9.65 7.94661C10.3134 7.94661 10.8816 8.18263 11.3544 8.65468C11.8265 9.12753 12.0625 9.69567 12.0625 10.3591L9.65 12.7716ZM9.65 5.53411C8.98656 5.53411 8.41882 5.29768 7.94678 4.82483C7.47393 4.35279 7.2375 3.78504 7.2375 3.12161C7.2375 2.45817 7.47393 1.89043 7.94678 1.41838C8.41882 0.945531 8.98656 0.709106 9.65 0.709106C10.3134 0.709106 10.8816 0.945531 11.3544 1.41838C11.8265 1.89043 12.0625 2.45817 12.0625 3.12161C12.0625 3.78504 11.8265 4.35279 11.3544 4.82483C10.8816 5.29768 10.3134 5.53411 9.65 5.53411ZM9.04688 20.0091C8.88604 20.0091 8.74531 19.9488 8.62469 19.8282C8.50406 19.7075 8.44375 19.5668 8.44375 19.406V17.6871C8.44375 17.6469 8.50406 17.5061 8.62469 17.2649L14.8369 11.0527L17.4002 13.616L11.188 19.8282C11.1478 19.8684 11.007 19.9287 10.7658 20.0091H9.04688ZM16.8875 5.53411C16.2241 5.53411 15.6559 5.29768 15.1831 4.82483C14.711 4.35279 14.475 3.78504 14.475 3.12161C14.475 2.45817 14.711 1.89043 15.1831 1.41838C15.6559 0.945531 16.2241 0.709106 16.8875 0.709106C17.5509 0.709106 18.1191 0.945531 18.5919 1.41838C19.064 1.89043 19.3 2.45817 19.3 3.12161C19.3 3.78504 19.064 4.35279 18.5919 4.82483C18.1191 5.29768 17.5509 5.53411 16.8875 5.53411ZM18.2445 12.7716L15.6813 10.2083L16.5558 9.33379C16.797 9.09254 17.0837 8.97192 17.4158 8.97192C17.7472 8.97192 18.0234 9.09254 18.2445 9.33379L19.1191 10.2083C19.3603 10.4295 19.4809 10.7057 19.4809 11.037C19.4809 11.3691 19.3603 11.6558 19.1191 11.8971L18.2445 12.7716Z" fill="white"/>
</svg>
