<svg width="22" height="22" viewBox="0 0 22 22" xmlns="http://www.w3.org/2000/svg">
<path d="M3.66683 19.25C3.16266 19.25 2.73122 19.0706 2.3725 18.7119C2.01316 18.3526 1.8335 17.9208 1.8335 17.4167V7.33332C1.8335 6.82915 2.01316 6.3977 2.3725 6.03898C2.73122 5.67965 3.16266 5.49998 3.66683 5.49998H7.33349V3.66665C7.33349 3.16248 7.51316 2.73073 7.87249 2.3714C8.23122 2.01267 8.66266 1.83331 9.16683 1.83331H12.8335C13.3377 1.83331 13.7694 2.01267 14.1287 2.3714C14.4875 2.73073 14.6668 3.16248 14.6668 3.66665V5.49998H18.3335C18.8377 5.49998 19.2694 5.67965 19.6287 6.03898C19.9875 6.3977 20.1668 6.82915 20.1668 7.33332V17.4167C20.1668 17.9208 19.9875 18.3526 19.6287 18.7119C19.2694 19.0706 18.8377 19.25 18.3335 19.25H3.66683ZM9.16683 5.49998H12.8335V3.66665H9.16683V5.49998Z"/>
</svg>
